<svg xmlns="http://www.w3.org/2000/svg" width="470" height="195" viewBox="0 0 470 195" role="img" aria-label="Top public repository languages">
  <rect width="469" height="194" x="0.5" y="0.5" rx="6" fill="#0d1117" stroke="#30363d"/>
  <text x="24" y="38" fill="#58a6ff" font-family="Segoe UI, Ubuntu, sans-serif" font-size="18" font-weight="600">Top Public Languages</text>
  <rect x="24.00" y="60" width="136.87" height="9" rx="4.5" fill="#3572A5"/>
  <rect x="160.87" y="60" width="128.55" height="9" fill="#f34b7d"/>
  <rect x="289.41" y="60" width="68.60" height="9" fill="#555555"/>
  <rect x="358.01" y="60" width="66.53" height="9" fill="#e34c26"/>
  <rect x="424.54" y="60" width="20.20" height="9" fill="#563d7c"/>
  <rect x="444.75" y="60" width="1.25" height="9" rx="4.5" fill="#f1e05a"/>
  <circle cx="30" cy="95" r="5" fill="#3572A5"/>
  <text x="43" y="99" fill="#c9d1d9" font-family="Segoe UI, Ubuntu, sans-serif" font-size="12">Python 32.4%</text>
  <circle cx="251" cy="95" r="5" fill="#f34b7d"/>
  <text x="264" y="99" fill="#c9d1d9" font-family="Segoe UI, Ubuntu, sans-serif" font-size="12">C++ 30.5%</text>
  <circle cx="30" cy="126" r="5" fill="#555555"/>
  <text x="43" y="130" fill="#c9d1d9" font-family="Segoe UI, Ubuntu, sans-serif" font-size="12">C 16.3%</text>
  <circle cx="251" cy="126" r="5" fill="#e34c26"/>
  <text x="264" y="130" fill="#c9d1d9" font-family="Segoe UI, Ubuntu, sans-serif" font-size="12">HTML 15.8%</text>
  <circle cx="30" cy="157" r="5" fill="#563d7c"/>
  <text x="43" y="161" fill="#c9d1d9" font-family="Segoe UI, Ubuntu, sans-serif" font-size="12">CSS 4.8%</text>
  <circle cx="251" cy="157" r="5" fill="#f1e05a"/>
  <text x="264" y="161" fill="#c9d1d9" font-family="Segoe UI, Ubuntu, sans-serif" font-size="12">JavaScript 0.3%</text>
  <text x="24" y="184" fill="#6e7681" font-family="Segoe UI, Ubuntu, sans-serif" font-size="10">TypeScript excluded · private repositories excluded</text>
</svg>
